PathFileType  4	(X/Y/Z) C:\Users\antoi\Documents\MyRepositories\mobilecap\ResultsAnalysis
DataRate	CameraRate	NumFrames	NumMarkers	Units	OrigDataRate	OrigDataStartFrame	OrigNumFrames
100.0	100.0	4	51	mm	100.0	121	138
Frame#	Time	r_knee			r_shank_antsup			r_ankle			r_calc			r_5meta			r_toe			L_knee			L_shank_antsup			L_ankle			L_calc			L_5meta			L_toe			r_sh2			r_sh3			r_sh4			L_sh2			L_sh3			r_thigh1			r_thigh2			r_thigh3			r_thigh4			r_thigh5			L_thigh1			L_thigh2			L_thigh3			L_thigh4			r.ASIS			r.PSIS			L.ASIS			L.PSIS			C7			R_Shoulder			L_Shoulder			R_Sternum			L_Sternum			R_humerus			R_elbow_med			R_elbow_lat			R_forearm			R_wrist_radius			R_wrist_ulna			L_humerus			L_elbow_med			L_elbow_lat			L_forearm			L_wrist_radius			L_wrist_ulna			R_HJC			L_HJC			R_HJC_reg			L_HJC_reg			
		X1	Y1	Z1	X2	Y2	Z2	X3	Y3	Z3	X4	Y4	Z4	X5	Y5	Z5	X6	Y6	Z6	X7	Y7	Z7	X8	Y8	Z8	X9	Y9	Z9	X10	Y10	Z10	X11	Y11	Z11	X12	Y12	Z12	X13	Y13	Z13	X14	Y14	Z14	X15	Y15	Z15	X16	Y16	Z16	X17	Y17	Z17	X18	Y18	Z18	X19	Y19	Z19	X20	Y20	Z20	X21	Y21	Z21	X22	Y22	Z22	X23	Y23	Z23	X24	Y24	Z24	X25	Y25	Z25	X26	Y26	Z26	X27	Y27	Z27	X28	Y28	Z28	X29	Y29	Z29	X30	Y30	Z30	X31	Y31	Z31	X32	Y32	Z32	X33	Y33	Z33	X34	Y34	Z34	X35	Y35	Z35	X36	Y36	Z36	X37	Y37	Z37	X38	Y38	Z38	X39	Y39	Z39	X40	Y40	Z40	X41	Y41	Z41	X42	Y42	Z42	X43	Y43	Z43	X44	Y44	Z44	X45	Y45	Z45	X46	Y46	Z46	X47	Y47	Z47	X48	Y48	Z48	X49	Y49	Z49	X50	Y50	Z50	X51	Y51	Z51	

121	1.20000000	1409.02663	460.17120	-112.96694	1470.59955	359.24439	-138.51482	1450.92166	83.70865	-174.71824	1404.18674	54.52308	-229.37602	1567.08795	38.81560	-150.34602	1603.25975	61.23394	-192.77611	1154.87130	446.24891	-389.24229	1127.52515	331.50771	-347.68254	882.15871	157.66456	-356.78784	821.89561	156.00335	-311.21700	947.69748	42.84896	-360.95629	983.73084	42.42613	-304.80079	1482.16793	249.65556	-159.60825	1417.63623	342.22043	-86.84866	1411.24639	233.55463	-116.38219	1098.10544	380.76486	-413.36926	1015.79159	294.79380	-421.66059	1389.44059	772.71701	-98.42631	1432.41386	669.87691	-104.23461	1397.31069	627.79599	-60.61238	1295.81829	730.09121	-53.09538	1341.04114	625.13687	-56.85010	1294.96033	715.59972	-410.47171	1277.56190	580.09944	-400.58355	1188.45264	735.32167	-441.77250	1165.60653	596.31272	-418.24742	1363.23334	913.63305	-132.04204	1175.18153	945.01726	-190.02022	1358.51016	893.57918	-375.91955	1172.33692	944.10550	-307.02797	1185.28746	1397.75789	-244.43475	1231.49378	1361.57178	-88.63960	1263.84905	1379.04360	-396.74123	1314.82176	1351.10374	-215.73482	1318.95592	1349.48138	-259.85885	1221.77594	1231.27545	-25.00551	1128.52091	1052.32716	-102.10167	1130.72845	1059.00937	-26.74560	1129.08930	937.16334	6.55022	1113.91809	832.99245	14.03065	1077.00880	844.84844	18.81327	1314.61558	1242.42080	-462.61045	1294.73950	1035.75011	-435.49166	1312.69203	1056.17103	-503.14583	1401.64642	1005.72914	-515.79587	1498.40675	920.14555	-498.33653	1481.54158	899.97993	-518.05493	1274.61046	837.65541	-147.44728	1272.09778	822.04644	-336.14660	1293.74914	830.58631	-163.68027	1289.81696	829.32738	-325.15883	
122	1.21000000	1420.40496	462.12513	-113.28682	1478.74357	359.02366	-139.20657	1451.96249	84.11960	-174.88969	1404.46672	54.67795	-229.31965	1567.42920	38.25722	-150.37091	1603.84498	59.85452	-193.03617	1176.16908	444.32197	-389.04773	1146.64534	329.78142	-348.98321	894.88516	166.62399	-357.61231	835.81181	169.57699	-312.21977	951.48798	45.99133	-361.05198	986.96995	43.42081	-304.77860	1487.74980	249.25266	-160.28950	1426.26756	343.17987	-86.73424	1417.17855	234.53710	-115.91643	1118.25528	381.20733	-413.80714	1032.35296	298.32982	-421.98437	1402.48165	775.03067	-98.08372	1445.60986	672.24133	-105.03911	1410.57855	630.14908	-61.20071	1309.61715	732.70052	-51.69224	1354.36981	627.51337	-56.46745	1310.52359	716.04604	-408.50702	1296.47443	580.11362	-400.15992	1203.50649	733.88656	-438.86191	1184.05643	594.06423	-416.70301	1376.56872	916.69096	-130.65057	1188.21689	947.36282	-189.24526	1372.09545	894.69607	-374.02912	1185.66668	945.23438	-306.38216	1197.70601	1399.38516	-243.12310	1244.26021	1363.40685	-87.39206	1276.02846	1380.59241	-395.56989	1327.27884	1353.04651	-214.67391	1331.33771	1351.39489	-258.77418	1236.02473	1232.83747	-23.86589	1144.39941	1053.06650	-100.84759	1146.65906	1059.71595	-25.50746	1146.07218	937.91613	7.75535	1131.70061	833.53829	15.26649	1094.79614	845.18459	19.98968	1325.69728	1243.33608	-461.44434	1304.42601	1036.95043	-432.87704	1321.69799	1056.86190	-500.88916	1409.83085	1005.15732	-514.13507	1505.39155	918.25060	-497.09326	1488.05631	898.33785	-516.67554	1287.90611	840.48345	-145.51147	1285.82352	823.23879	-334.07754	1307.02372	833.64933	-161.57758	1303.50501	830.72748	-322.81979	
123	1.22000000	1431.19642	463.96334	-113.63748	1486.32929	358.81758	-140.03481	1452.63143	84.51475	-174.90549	1404.50539	54.65168	-229.18063	1567.54500	38.05143	-150.38261	1604.15420	59.08988	-193.26024	1198.89011	442.18528	-389.04072	1167.05187	328.20490	-350.05239	909.49721	176.05225	-358.55434	852.05901	183.91720	-313.43609	956.10195	50.28955	-361.21749	991.06318	45.10542	-304.94479	1492.84808	248.91792	-161.06120	1434.47975	344.10349	-86.60601	1422.72612	235.51611	-115.34821	1140.04782	381.47971	-414.35746	1050.56950	301.74715	-422.19828	1415.39483	777.24299	-97.88304	1458.35061	674.37466	-105.95019	1423.52023	632.39643	-61.91429	1323.24530	735.30482	-50.35457	1367.34609	629.84106	-56.13722	1326.30944	716.65442	-406.62104	1316.16716	580.29758	-399.84711	1218.85990	732.15198	-436.18423	1203.31047	591.52711	-415.49913	1389.73676	919.78654	-129.33868	1201.05963	949.89059	-188.44705	1385.20708	896.08926	-372.10279	1198.66261	946.53864	-305.77525	1210.05235	1401.23707	-241.86141	1257.00530	1365.55664	-86.24385	1288.06230	1382.39412	-394.37947	1339.62789	1355.18898	-213.70084	1343.58446	1353.48462	-257.75585	1250.27204	1234.81678	-22.71751	1160.26626	1054.20215	-99.52332	1162.69964	1060.76265	-24.15127	1163.50084	938.96816	9.01465	1150.29078	834.35520	16.54686	1113.36122	845.66269	21.25732	1336.63335	1244.56141	-460.25903	1313.86525	1038.50838	-430.15030	1330.43444	1057.87105	-498.55659	1417.57199	1004.77744	-512.44322	1511.67144	916.33278	-495.83985	1493.76167	896.74268	-515.28332	1300.94926	843.41813	-143.65249	1299.18042	824.65489	-332.08506	1320.04209	836.96229	-159.46522	1316.74756	832.38127	-320.37423	
124	1.23000000	1441.04346	465.42245	-113.83673	1493.27209	358.50253	-140.79390	1453.09730	84.82084	-174.83419	1404.44016	54.56200	-229.02276	1567.57520	37.98709	-150.40497	1604.35485	58.65623	-193.46142	1222.90774	439.96125	-389.18538	1188.68934	326.90974	-350.83521	926.01221	185.69824	-359.59409	870.65401	198.65586	-314.79726	961.80275	55.76724	-361.44989	996.26771	47.54599	-305.33008	1497.45997	248.53819	-161.78101	1442.09835	344.82913	-86.40162	1427.83091	236.34668	-114.72538	1163.31577	381.62202	-414.95485	1070.41761	305.03221	-422.33816	1428.21289	779.09514	-97.81396	1470.47073	675.92863	-106.76735	1435.89220	634.29013	-62.50219	1336.59591	737.81086	-49.09139	1379.70142	631.96735	-55.72555	1342.20844	717.43102	-404.89027	1336.44870	580.68240	-399.68945	1234.37683	730.10936	-433.75420	1223.20039	588.78739	-414.58726	1402.81335	922.72362	-128.18908	1213.76979	952.46311	-187.57489	1397.79934	897.67733	-370.26919	1211.33780	947.93208	-305.14910	1222.29545	1403.18830	-240.64242	1269.75416	1367.91405	-85.20400	1299.90649	1384.36242	-393.17948	1351.87377	1357.43779	-212.82742	1355.70133	1355.66134	-256.82264	1264.49071	1237.12610	-21.55249	1176.05020	1055.66228	-98.09301	1178.81611	1062.06643	-22.67397	1181.33857	940.25021	10.33228	1169.60975	835.35376	17.86952	1132.66405	846.22425	22.62244	1347.40942	1246.02454	-459.06125	1323.03604	1040.36388	-427.36060	1338.92873	1059.13781	-496.18731	1424.91749	1004.56388	-510.73900	1517.32180	914.38758	-494.59126	1498.75045	895.18323	-513.89425	1313.81693	846.27959	-141.94250	1312.12841	826.20932	-330.25010	1332.84592	840.34745	-157.44219	1329.52340	834.18179	-317.94571	
